<?xml version="1.0" encoding="UTF-8" standalone="no"?>
<!-- Svg Vector Icons : http://www.onlinewebfonts.com/icon -->

<svg
   version="1.1"
   x="0px"
   y="0px"
   viewBox="0 0 771648.69 771605.12"
   enable-background="new 0 0 1000 1000"
   xml:space="preserve"
   id="svg52"
   sodipodi:docname="pastry.svg"
   width="771648.69"
   height="771605.12"
   xmlns:inkscape="http://www.inkscape.org/namespaces/inkscape"
   xmlns:sodipodi="http://sodipodi.sourceforge.net/DTD/sodipodi-0.dtd"
   xmlns="http://www.w3.org/2000/svg"
   xmlns:svg="http://www.w3.org/2000/svg"><defs
   id="defs56" /><sodipodi:namedview
   id="namedview54"
   pagecolor="#ffffff"
   bordercolor="#666666"
   borderopacity="1.0"
   inkscape:showpageshadow="2"
   inkscape:pageopacity="0.0"
   inkscape:pagecheckerboard="0"
   inkscape:deskcolor="#d1d1d1"
   showgrid="false" />
<metadata
   id="metadata46"> Svg Vector Icons : http://www.onlinewebfonts.com/icon </metadata>
<g
   id="g50"
   transform="matrix(0.78675606,0,0,0.78675606,-111616.28,-112526.32)"
   inkscape:export-filename="icon.svg"
   inkscape:export-xdpi="96"
   inkscape:export-ydpi="96"><path
     d="m 902,381.3 c 0.6,-23.6 -3.3,-50.2 -11.9,-79.9 C 881.5,271.8 867,240.2 846.6,206.7 826.2,173.2 801.5,142.6 772.5,114.9 743.5,87.2 706.2,63.4 660.6,43.6 615,23.8 565.4,12.6 511.8,10.1 c -57.4,-0.6 -111.5,10 -162.2,32 -50.7,22 -92.9,50.4 -126.8,85.2 -33.8,34.8 -60.9,73.2 -81.3,115.3 -20.4,42.1 -31.9,83.9 -34.5,125.3 -12.1,2.5 -23.8,7.8 -34.9,15.8 -11.1,8 -20.9,17.4 -29.2,28.2 -8.3,10.8 -15.3,22.9 -21.1,36.3 -5.7,13.4 -9.4,27 -11,40.7 -1.6,13.7 -0.7,27.6 2.9,41.6 3.6,14 9.7,26.8 18.7,38.3 8.9,12.1 16.7,21.5 23.4,28.2 6.7,6.7 18.3,14.8 34.9,24.4 16.6,9.6 37.6,19.1 63.2,28.7 l 102.4,331 13.4,6.7 6.7,1.9 c 24.9,-2.5 174.1,-2.5 447.7,0 0.6,-0.6 2.9,-0.6 6.7,0 3.8,0.6 8.8,-1.1 14.8,-5.3 6.1,-4.2 10.7,-10.4 13.9,-18.7 L 856,627.2 c 3.2,0 7.5,-0.3 12.9,-1 5.4,-0.6 15.5,-2.9 30.1,-6.7 14.7,-3.8 27.7,-9.3 39.2,-16.3 11.5,-7 22.3,-17.7 32.5,-32 10.2,-14.3 16.6,-31.4 19.1,-51.2 0.6,-37 -6.2,-65.7 -20.6,-86.1 C 955,413.5 932.5,395.9 902,381.3 Z M 324.1,926.6 c -7,1.9 -13.7,1.1 -20.1,-2.4 -6.4,-3.5 -10.5,-8.8 -12.4,-15.8 L 233.3,717.1 c -1.9,-7 -1.3,-13.7 1.9,-20.1 3.2,-6.4 8,-10.8 14.4,-13.4 2.5,-0.6 5.3,-1 8.1,-1 2.8,0 5.6,0.6 8.1,1.9 2.5,1.3 4.8,2.7 6.7,4.3 1.9,1.6 3.7,3.5 5.3,5.7 1.6,2.2 3,4.6 4.3,7.2 L 340.4,894 c 0.6,1.9 1,4.1 1,6.7 0,2.6 -0.2,5 -0.5,7.2 -0.3,2.2 -1,4.3 -1.9,6.2 -1,2 -2.2,3.7 -3.8,5.3 -1.6,1.6 -3.3,3 -5.3,4.3 -2,1.4 -3.9,2.3 -5.8,2.9 z m 121.5,4.8 c -7,0.6 -13.2,-1.3 -18.7,-5.8 -5.4,-4.5 -8.8,-10.2 -10.1,-17.2 L 392,708.5 c -0.6,-1.9 -0.8,-4.1 -0.5,-6.7 0.3,-2.6 1,-4.8 1.9,-6.7 1,-1.9 2.1,-3.8 3.3,-5.7 1.3,-1.9 2.7,-3.5 4.3,-4.8 1.6,-1.3 3.5,-2.4 5.7,-3.3 2.2,-1 4.6,-1.4 7.2,-1.4 6.4,-1.3 12.4,0.3 18.2,4.8 5.7,4.5 8.9,10.5 9.6,18.2 l 25.9,199 c 0.6,7 -1.1,13.4 -5.3,19.1 -4.1,5.6 -9.7,9.1 -16.7,10.4 z M 612.1,708.5 586.2,908.4 c -0.6,7 -3.8,12.8 -9.6,17.2 -5.7,4.5 -12.1,6.2 -19.1,5.3 -7,-0.9 -12.6,-4.3 -16.7,-10.1 -4.1,-5.8 -5.6,-12.1 -4.3,-19.1 l 24.9,-199 c 0.6,-7.7 3.8,-13.7 9.6,-18.2 5.7,-4.5 12.1,-6.2 19.1,-5.3 7,0.9 12.6,4.3 16.7,10.1 4.2,5.8 5.9,12.2 5.3,19.2 z m 157.8,8.6 -58.3,191.3 c -1.9,7 -6,12.3 -12.4,15.8 -6.4,3.5 -12.8,4.3 -19.1,2.4 -3.2,-1.3 -6.1,-3 -8.6,-5.3 -2.5,-2.2 -4.6,-4.8 -6.2,-7.6 -1.6,-2.9 -2.6,-6.1 -2.9,-9.6 -0.3,-3.5 0.2,-6.9 1.4,-10.1 l 58.3,-192.3 c 1.9,-7 6,-12.3 12.4,-15.8 6.4,-3.5 12.9,-4.2 19.6,-1.9 6.7,2.2 11.6,6.5 14.8,12.9 3.3,6.5 3.6,13.2 1,20.2 z M 930.7,511.4 c -2.5,9.6 -7.8,18.7 -15.8,27.3 -8,8.6 -17.7,15.9 -29.2,22 -11.5,6.1 -25.5,7 -42.1,2.9 -16.6,-4.2 -33.5,-14.2 -50.7,-30.2 -3.8,-2.5 -7.2,-4.1 -10.1,-4.8 -2.9,-0.6 -6.7,0.1 -11.5,2.4 -4.8,2.2 -10.4,6.5 -16.7,12.9 -3.2,3.2 -7,8.8 -11.5,16.7 -4.5,8 -9.3,15.5 -14.4,22.5 -5.1,7 -11.6,14 -19.6,21.1 -8,7 -18.5,12.6 -31.6,16.7 -13.1,4.1 -28.2,5.9 -45.4,5.3 -22.3,-1.3 -43.5,-9.4 -63.6,-24.4 -20.1,-15 -36.8,-31.4 -50.2,-49.3 -6.4,-8.9 -14.4,-13.6 -23.9,-13.9 -9.6,-0.3 -18.5,4.6 -26.8,14.8 -5.1,7.7 -11.6,14.7 -19.6,21.1 -8,6.4 -18.2,12.1 -30.6,17.2 -12.4,5.1 -27.1,5.4 -44,1 -16.9,-4.5 -34,-14.7 -51.2,-30.6 -7.7,-10.2 -16.6,-15.6 -26.8,-16.3 -10.2,-0.6 -21.7,4.8 -34.5,16.3 -7,7.7 -16.4,14 -28.2,19.1 -11.8,5.1 -25.7,8.8 -41.6,11 -15.9,2.3 -33.8,-0.9 -53.6,-9.6 C 117.7,574 98.9,559.8 81,540 73.3,531.7 69.5,520.9 69.5,507.5 c 0,-13.4 3,-26.6 9.1,-39.7 6.1,-13.1 15.6,-25 28.7,-35.9 13.1,-10.9 28.2,-18.2 45.4,-22 l 6.7,-10.5 c 0,-2.5 0.2,-6.1 0.5,-10.5 0.3,-4.5 1.8,-13.9 4.3,-28.2 2.5,-14.3 5.9,-28.4 10.1,-42.1 4.2,-13.7 10.5,-30.1 19.1,-49.3 8.6,-19.1 18.5,-37 29.7,-53.6 11.2,-16.6 25.7,-33.5 43.5,-50.7 17.9,-17.2 37.5,-32 58.8,-44.5 21.4,-12.5 47,-23.1 77,-32 30,-8.9 62.5,-14 97.6,-15.3 38.3,1.9 73.8,8 106.7,18.2 32.8,10.2 61.4,23.6 85.6,40.2 24.3,16.6 45.8,35.4 64.6,56.5 18.8,21.1 34.6,44.5 47.4,70.3 12.8,25.8 22.8,52.4 30.1,79.9 7.3,27.4 12.2,55.8 14.8,85.2 29.3,7.7 51.5,19.9 66.5,36.8 15.1,16.8 20,33.9 15,51.1 z M 520.3,196.6 c 0,-3.2 -0.5,-6.4 -1.4,-9.6 -1,-3.2 -2.4,-6.1 -4.3,-8.6 -1.9,-2.5 -4.1,-4.8 -6.7,-6.7 -2.6,-1.9 -5.4,-3.4 -8.6,-4.3 -3.2,-0.9 -6.4,-1.4 -9.6,-1.4 -8.3,0 -15.5,3 -21.5,9.1 -6.1,6.1 -9.1,13.2 -9.1,21.5 0,5.1 1.4,10 4.3,14.8 2.9,4.8 6.5,8.6 11,11.5 4.5,2.9 9.6,4.3 15.3,4.3 8.3,0 15.5,-3 21.5,-9.1 6,-6 9.1,-13.2 9.1,-21.5 z m 196.1,51.7 c 0,-8.3 -2.9,-15.5 -8.6,-21.5 -5.7,-6.1 -12.9,-9.1 -21.5,-9.1 -8.6,0 -15.8,3 -21.5,9.1 -5.7,6.1 -8.6,13.2 -8.6,21.5 0,8.3 2.9,15.5 8.6,21.5 5.7,6.1 12.9,9.1 21.5,9.1 8.6,0 15.8,-3 21.5,-9.1 5.7,-6 8.6,-13.2 8.6,-21.5 z m -12.5,157.9 c -3.8,0 -7.7,0.8 -11.5,2.4 -3.8,1.6 -7.2,3.8 -10.1,6.7 -2.9,2.9 -5.1,6.1 -6.7,9.6 -1.6,3.5 -2.4,7.3 -2.4,11.5 0,4.2 0.8,8.2 2.4,11.9 1.6,3.8 3.8,7.1 6.7,10.1 2.9,2.9 6.2,5.2 10.1,6.7 3.8,1.6 7.7,2.4 11.5,2.4 8.9,0 16.3,-3 22,-9.1 5.7,-6.1 8.6,-13.2 8.6,-21.5 0,-4.5 -0.8,-8.5 -2.4,-11.9 -1.6,-3.5 -3.7,-6.7 -6.2,-9.6 -2.5,-2.9 -5.7,-5.1 -9.6,-6.7 -3.8,-1.7 -8,-2.5 -12.4,-2.5 z M 501.1,375.6 c -3.8,0 -7.7,0.8 -11.5,2.4 -3.8,1.6 -7.2,3.8 -10.1,6.7 -2.9,2.9 -5.1,6.1 -6.7,9.6 -1.6,3.5 -2.4,7.5 -2.4,11.9 0,8.3 3,15.5 9.1,21.5 6.1,6.1 13.2,9.1 21.5,9.1 8.3,0 15.5,-3 21.5,-9.1 6.1,-6.1 9.1,-13.2 9.1,-21.5 0,-8.3 -3,-15.5 -9.1,-21.5 -6,-6.1 -13.1,-9.1 -21.4,-9.1 z M 317.4,257.9 c -3.2,0 -6.4,0.5 -9.6,1.4 -3.2,1 -6.1,2.4 -8.6,4.3 -2.5,1.9 -4.8,4.1 -6.7,6.7 -1.9,2.6 -3.4,5.3 -4.3,8.1 -0.9,2.8 -1.4,6.2 -1.4,10.1 0,5.1 1.3,10 3.8,14.8 2.5,4.8 6.2,8.5 11,11 4.8,2.5 10.1,3.8 15.8,3.8 3.8,0 7.7,-0.8 11.5,-2.4 3.8,-1.6 7.2,-3.7 10.1,-6.2 2.9,-2.6 5.1,-5.8 6.7,-9.6 1.6,-3.8 2.4,-7.6 2.4,-11.5 0,-5.7 -1.4,-11 -4.3,-15.8 -2.9,-4.8 -6.7,-8.5 -11.5,-11 -4.8,-2.5 -9.8,-3.7 -14.9,-3.7 z m -54.5,148.3 c -5.7,0 -11,1.3 -15.8,3.8 -4.8,2.5 -8.5,6.2 -11,11 -2.5,4.8 -3.8,10.1 -3.8,15.8 0,8.3 2.9,15.5 8.6,21.5 5.7,6.1 12.9,9.1 21.5,9.1 8.6,0 15.8,-3 21.5,-9.1 5.7,-6.1 8.6,-13.2 8.6,-21.5 0,-8.3 -2.9,-15.5 -8.6,-21.5 -5.8,-6.1 -12.8,-9.1 -21,-9.1 z"
     id="path48"
     style="fill:#ffffff;stroke:#ffffff;stroke-opacity:1"
     inkscape:export-filename="logo.svg"
     inkscape:export-xdpi="96"
     inkscape:export-ydpi="96" /></g>
</svg>
